:SAMPLES-PER-SECOND 30
:FULLY-SPECIFIED
:DEGREES
81
root  2.48615 38.3029 -4.04008 -144.204 -81.3909 137.926
RightUpLeg  5.0573 0.260191 -12.2491
RightLeg  56.3755 -0.811987 -1.73046
RightFoot  13.7252 -1.80653 8.46608
RightToes  5.82063e-011 0 -3.6325e-017
Spine  6.76414 3.32953 2.87346
Spine1  9.05543 5.68849 -8.56158
HEad  -12.7019 2.15811 -6.61807
LeftShoulder1  9.46535 -12.9673 -50.166
LeftArm  -7.03183 24.6006 -27.0718
LeftForeArm  27.575 -6.3807 -5.98438
LeftHand  -0.244104 0.0205437 5.32207
RightShoulder  7.29752 11.0509 43.7335
RightArm  0.812407 5.54412 33.7434
RightForeArm  1.91318 11.5414 8.05042
RightHand  -1.41875 4.05086 -17.5706
LeftUpLeg  -19.9737 10.6362 -10.7525
LeftLeg  25.2137 8.48071 4.66531
LeftFoot  -1.49264 -0.657901 7.7215
LeftToes  3.81955e-011 1.3492e-010 1.36421e-011
82
root  0.851478 38.7271 -3.92554 -145.911 -80.8345 139.181
RightUpLeg  -2.05314 1.89549 -11.6869
RightLeg  63.7836 -1.48027 -3.83628
RightFoot  12.8978 -1.01281 5.09608
RightToes  5.82063e-011 0 -3.6325e-017
Spine  7.36311 2.94458 2.11129
Spine1  9.42695 5.05882 -7.54589
HEad  -13.0732 3.15789 -7.95411
LeftShoulder1  9.52976 -12.998 -50.4113
LeftArm  -7.38585 21.8846 -27.3688
LeftForeArm  27.0732 -8.46344 -6.04422
LeftHand  -0.244104 0.0205437 5.32207
RightShoulder  7.5182 11.3086 44.2997
RightArm  -3.28147 4.67835 33.7057
RightForeArm  9.30579 4.37954 8.31635
RightHand  -1.20138 3.3526 -16.1116
LeftUpLeg  -15.9101 11.7123 -10.8018
LeftLeg  23.8484 8.1873 4.28681
LeftFoot  -3.51482 -0.491009 7.47611
LeftToes  3.81955e-011 1.3492e-010 1.36421e-011
83
root  -0.739243 39.2409 -3.82286 -147.028 -81.6707 139.881
RightUpLeg  -7.8067 1.77303 -10.5476
RightLeg  66.1903 -1.94588 -5.47634
RightFoot  9.54792 -0.672594 4.0335
RightToes  5.82063e-011 0 -3.6325e-017
Spine  8.02794 2.03522 1.90802
Spine1  9.51128 3.79968 -6.07798
HEad  -12.979 4.06736 -8.68149
LeftShoulder1  9.50258 -12.9992 -50.2651
LeftArm  -6.80614 18.901 -27.6851
LeftForeArm  26.4202 -11.1031 -5.92456
LeftHand  -0.244104 0.0205437 5.32207
RightShoulder  7.68328 11.4597 44.8403
RightArm  -3.48259 2.3816 33.3322
RightForeArm  14.4441 1.47769 7.5707
RightHand  -1.09563 2.80734 -15.6664
LeftUpLeg  -11.3309 12.5213 -9.96949
LeftLeg  21.2931 7.07105 3.38172
LeftFoot  -4.79944 -0.37224 7.00559
LeftToes  3.81955e-011 1.3492e-010 1.36421e-011
84
root  -2.27353 39.6348 -3.73848 -145.514 -83.3997 138.167
RightUpLeg  -12.5425 0.533993 -9.2527
RightLeg  64.5057 -2.46642 -6.24085
RightFoot  7.16557 -0.671653 4.41651
RightToes  5.82063e-011 0 -3.6325e-017
Spine  8.69719 0.934931 1.76142
Spine1  9.34997 2.21387 -4.66861
HEad  -12.3968 4.70702 -8.73376
LeftShoulder1  9.33896 -12.9437 -49.5698
LeftArm  -5.215 16.0902 -28.124
LeftForeArm  24.7926 -14.8013 -5.23982
LeftHand  -0.244104 0.0205437 5.32207
RightShoulder  7.62668 11.3879 44.7176
RightArm  -3.42424 -1.73357 33.0175
RightForeArm  16.7113 2.26621 7.28972
RightHand  -1.08002 2.51686 -15.9867
LeftUpLeg  -7.14379 12.3741 -8.75646
LeftLeg  19.081 6.14032 2.45142
LeftFoot  -6.38509 -0.250834 6.69006
LeftToes  3.81955e-011 1.3492e-010 1.36421e-011
85
root  -3.83402 39.9613 -3.65843 -142.583 -85.2731 135.183
RightUpLeg  -16.2316 -1.0324 -7.78999
RightLeg  59.308 -3.34014 -6.53843
RightFoot  5.6742 -0.565958 4.03315
RightToes  5.82063e-011 0 -3.6325e-017
Spine  9.12516 -0.0632011 1.667
Spine1  9.05779 0.696276 -3.03892
HEad  -11.4991 5.16669 -8.45259
LeftShoulder1  9.13326 -12.7899 -48.9359
LeftArm  -3.3827 13.7396 -28.1572
LeftForeArm  22.5537 -19.9213 -4.17829
LeftHand  -0.244104 0.0205437 5.32207
RightShoulder  7.38395 11.1286 44.0311
RightArm  -2.51279 -6.70393 32.5534
RightForeArm  14.4747 5.01865 7.68851
RightHand  -1.06432 2.37744 -16.0308
LeftUpLeg  -2.87285 10.1753 -7.18688
LeftLeg  16.4957 6.92283 1.16681
LeftFoot  -7.61074 -0.173115 6.72493
LeftToes  3.81955e-011 1.3492e-010 1.36421e-011
86
root  -5.41608 40.1788 -3.59978 -138.446 -86.636 131.002
RightUpLeg  -18.5321 -2.36551 -6.47404
RightLeg  50.6293 -4.48105 -6.1934
RightFoot  3.73648 -0.495762 3.95757
RightToes  5.82063e-011 0 -3.6325e-017
Spine  9.36098 -0.697683 1.37911
Spine1  8.88138 -0.431725 -1.44495
HEad  -10.5665 5.33794 -8.04393
LeftShoulder1  8.99649 -12.6028 -48.7613
LeftArm  -3.98643 11.5797 -27.2981
LeftForeArm  22.9254 -25.656 -4.17522
LeftHand  -0.244104 0.0205437 5.32207
RightShoulder  7.11872 10.8021 43.3872
RightArm  -0.625915 -11.5267 31.5083
RightForeArm  10.3893 8.30445 8.23244
RightHand  -1.04343 2.40152 -15.6785
LeftUpLeg  1.15595 7.49712 -5.87389
LeftLeg  14.0909 8.27311 -0.239224
LeftFoot  -8.84911 -0.0905571 6.56338
LeftToes  3.81955e-011 1.3492e-010 1.36421e-011
87
root  -7.0514 40.1441 -3.59715 -127.614 -87.2094 120.176
RightUpLeg  -19.3685 -3.84414 -5.79338
RightLeg  38.9334 -5.31433 -4.859
RightFoot  2.09817 -0.600453 5.20686
RightToes  5.82063e-011 0 -3.6325e-017
Spine  9.20138 -0.98583 0.404106
Spine1  8.92426 -1.13057 -0.480382
HEad  -9.72341 5.1313 -7.4651
LeftShoulder1  8.9061 -12.4903 -48.609
LeftArm  -6.07167 9.30383 -26.0538
LeftForeArm  25.3051 -30.924 -5.34518
LeftHand  -0.244104 0.0205437 5.32207
RightShoulder  6.92446 10.5132 43.0545
RightArm  2.48593 -15.92 30.1891
RightForeArm  6.72537 11.5242 8.09713
RightHand  -1.05157 2.58025 -15.4568
LeftUpLeg  4.21885 6.06218 -5.30157
LeftLeg  13.5909 8.78368 -1.22261
LeftFoot  -11.2805 0.0643461 6.00923
LeftToes  3.81955e-011 1.3492e-010 1.36421e-011
88
root  -8.78587 39.9755 -3.62485 -109.728 -87.2852 102.577
RightUpLeg  -19.2364 -6.93591 -5.061
RightLeg  25.1361 -4.6212 -2.76312
RightFoot  1.84653 -0.712528 6.26046
RightToes  5.82063e-011 0 -3.6325e-017
Spine  8.23526 -1.23532 -0.781502
Spine1  9.2061 -1.6528 0.249313
HEad  -8.84391 4.77567 -6.72467
LeftShoulder1  8.78257 -12.444 -48.0689
LeftArm  -7.50367 7.03287 -25.0365
LeftForeArm  26.9763 -35.2059 -6.31865
LeftHand  -0.244104 0.0205437 5.32207
RightShoulder  6.77155 10.2756 42.8153
RightArm  4.81164 -19.832 29.1032
RightForeArm  5.09005 13.6648 7.57854
RightHand  -1.08427 2.76147 -15.586
LeftUpLeg  6.98931 5.46422 -5.14903
LeftLeg  13.4592 8.63532 -1.92085
LeftFoot  -13.9026 0.212131 5.69192
LeftToes  3.81955e-011 1.3492e-010 1.36421e-011
89
root  -10.5738 39.8082 -3.64965 -91.8584 -87.0902 85.3039
RightUpLeg  -18.5636 -10.0139 -4.47671
RightLeg  10.5109 -3.26139 0.27768
RightFoot  2.01701 -0.780571 6.77032
RightToes  5.82063e-011 0 -3.6325e-017
Spine  6.61887 -1.54619 -1.73727
Spine1  9.76805 -2.21247 1.31344
HEad  -7.87354 4.48799 -6.05601
LeftShoulder1  8.64481 -12.3751 -47.5128
LeftArm  -8.75955 4.89218 -24.068
LeftForeArm  28.0929 -38.3681 -7.1173
LeftHand  -0.244104 0.0205437 5.32207
RightShoulder  6.60212 10.0371 42.4572
RightArm  4.78775 -22.9654 28.3383
RightForeArm  5.53901 13.755 7.46762
RightHand  -1.09305 2.75336 -15.7246
LeftUpLeg  10.0503 5.03839 -5.04489
LeftLeg  12.139 8.13165 -2.62148
LeftFoot  -15.7344 0.308014 5.56107
LeftToes  3.81955e-011 1.3492e-010 1.36421e-011
90
root  -12.4201 39.5043 -3.69279 -79.2545 -86.5121 73.1868
RightUpLeg  -17.6924 -6.97968 -6.39179
RightLeg  -1.37986 -6.37494 4.14147
RightFoot  0.872022 -0.845759 8.00148
RightToes  5.82063e-011 0 -3.6325e-017
Spine  5.06317 -1.84438 -2.85365
Spine1  10.3023 -2.76578 2.4037
HEad  -7.07121 4.22945 -5.72117
LeftShoulder1  8.55453 -12.2412 -47.414
LeftArm  -9.93819 2.76636 -22.9748
LeftForeArm  28.7239 -40.3579 -7.66357
LeftHand  -0.244104 0.0205437 5.32207
RightShoulder  6.43582 9.8166 42.047
RightArm  1.98155 -24.9985 27.7153
RightForeArm  8.09928 11.5666 7.73935
RightHand  -1.04887 2.53729 -15.4966
LeftUpLeg  13.0131 5.17649 -4.8741
LeftLeg  11.5107 6.85877 -3.18825
LeftFoot  -18.017 0.383174 4.75777
LeftToes  3.81955e-011 1.3492e-010 1.36421e-011
